<mxfile host="app.diagrams.net" agent="Mozilla/5.0 (Windows NT 10.0; Win64; x64) AppleWebKit/537.36 (KHTML, like Gecko) Chrome/129.0.0.0 Safari/537.36" version="24.7.17">
  <diagram name="Страница — 1" id="T7HeSG9jbLAst6LGBBnz">
    <mxGraphModel dx="1290" dy="565" grid="1" gridSize="10" guides="1" tooltips="1" connect="1" arrows="1" fold="1" page="1" pageScale="1" pageWidth="827" pageHeight="1169" math="0" shadow="0">
      <root>
        <mxCell id="0" />
        <mxCell id="1" parent="0" />
        <mxCell id="lR26Qc7CI7EQElEq0QMd-37" style="edgeStyle=orthogonalEdgeStyle;rounded=0;orthogonalLoop=1;jettySize=auto;html=1;exitX=0.5;exitY=1;exitDx=0;exitDy=0;" parent="1" source="lR26Qc7CI7EQElEq0QMd-1" edge="1">
          <mxGeometry relative="1" as="geometry">
            <mxPoint x="560" y="240" as="targetPoint" />
          </mxGeometry>
        </mxCell>
        <mxCell id="lR26Qc7CI7EQElEq0QMd-1" value="Ввід n" style="rounded=0;whiteSpace=wrap;html=1;" parent="1" vertex="1">
          <mxGeometry x="500" y="140" width="120" height="60" as="geometry" />
        </mxCell>
        <mxCell id="lR26Qc7CI7EQElEq0QMd-3" value="" style="endArrow=none;html=1;rounded=0;" parent="1" edge="1">
          <mxGeometry width="50" height="50" relative="1" as="geometry">
            <mxPoint x="250" y="240" as="sourcePoint" />
            <mxPoint x="840" y="240" as="targetPoint" />
          </mxGeometry>
        </mxCell>
        <mxCell id="lR26Qc7CI7EQElEq0QMd-4" value="" style="endArrow=classic;html=1;rounded=0;" parent="1" edge="1">
          <mxGeometry width="50" height="50" relative="1" as="geometry">
            <mxPoint x="249.5" y="240" as="sourcePoint" />
            <mxPoint x="249.5" y="280" as="targetPoint" />
          </mxGeometry>
        </mxCell>
        <mxCell id="WJyj7A2W-qp9mit0AP6R-5" style="edgeStyle=orthogonalEdgeStyle;rounded=0;orthogonalLoop=1;jettySize=auto;html=1;exitX=0.5;exitY=1;exitDx=0;exitDy=0;entryX=0.5;entryY=0;entryDx=0;entryDy=0;" edge="1" parent="1" source="lR26Qc7CI7EQElEq0QMd-5" target="lR26Qc7CI7EQElEq0QMd-42">
          <mxGeometry relative="1" as="geometry" />
        </mxCell>
        <mxCell id="lR26Qc7CI7EQElEq0QMd-5" value="Cij = 1/(i + 2j)" style="rounded=0;whiteSpace=wrap;html=1;" parent="1" vertex="1">
          <mxGeometry x="200" y="280" width="100" height="40" as="geometry" />
        </mxCell>
        <mxCell id="lR26Qc7CI7EQElEq0QMd-6" value="" style="endArrow=classic;html=1;rounded=0;" parent="1" edge="1">
          <mxGeometry width="50" height="50" relative="1" as="geometry">
            <mxPoint x="709.5" y="240" as="sourcePoint" />
            <mxPoint x="709.5" y="280" as="targetPoint" />
          </mxGeometry>
        </mxCell>
        <mxCell id="lR26Qc7CI7EQElEq0QMd-39" value="" style="edgeStyle=orthogonalEdgeStyle;rounded=0;orthogonalLoop=1;jettySize=auto;html=1;" parent="1" source="lR26Qc7CI7EQElEq0QMd-7" target="lR26Qc7CI7EQElEq0QMd-38" edge="1">
          <mxGeometry relative="1" as="geometry" />
        </mxCell>
        <mxCell id="lR26Qc7CI7EQElEq0QMd-7" value="A" style="rounded=0;whiteSpace=wrap;html=1;" parent="1" vertex="1">
          <mxGeometry x="680" y="280" width="60" height="40" as="geometry" />
        </mxCell>
        <mxCell id="lR26Qc7CI7EQElEq0QMd-43" value="" style="edgeStyle=orthogonalEdgeStyle;rounded=0;orthogonalLoop=1;jettySize=auto;html=1;" parent="1" source="lR26Qc7CI7EQElEq0QMd-8" target="lR26Qc7CI7EQElEq0QMd-42" edge="1">
          <mxGeometry relative="1" as="geometry" />
        </mxCell>
        <mxCell id="lR26Qc7CI7EQElEq0QMd-8" value="B2" style="rounded=0;whiteSpace=wrap;html=1;" parent="1" vertex="1">
          <mxGeometry x="320" y="280" width="60" height="40" as="geometry" />
        </mxCell>
        <mxCell id="lR26Qc7CI7EQElEq0QMd-9" value="A2" style="rounded=0;whiteSpace=wrap;html=1;" parent="1" vertex="1">
          <mxGeometry x="390" y="280" width="60" height="40" as="geometry" />
        </mxCell>
        <mxCell id="lR26Qc7CI7EQElEq0QMd-53" style="edgeStyle=orthogonalEdgeStyle;rounded=0;orthogonalLoop=1;jettySize=auto;html=1;exitX=0.5;exitY=1;exitDx=0;exitDy=0;entryX=0.5;entryY=0;entryDx=0;entryDy=0;" parent="1" source="lR26Qc7CI7EQElEq0QMd-10" target="lR26Qc7CI7EQElEq0QMd-21" edge="1">
          <mxGeometry relative="1" as="geometry">
            <Array as="points">
              <mxPoint x="490" y="450" />
              <mxPoint x="530" y="450" />
            </Array>
          </mxGeometry>
        </mxCell>
        <mxCell id="lR26Qc7CI7EQElEq0QMd-10" value="A1" style="rounded=0;whiteSpace=wrap;html=1;" parent="1" vertex="1">
          <mxGeometry x="460" y="280" width="60" height="40" as="geometry" />
        </mxCell>
        <mxCell id="lR26Qc7CI7EQElEq0QMd-46" value="" style="edgeStyle=orthogonalEdgeStyle;rounded=0;orthogonalLoop=1;jettySize=auto;html=1;" parent="1" source="lR26Qc7CI7EQElEq0QMd-11" target="lR26Qc7CI7EQElEq0QMd-45" edge="1">
          <mxGeometry relative="1" as="geometry" />
        </mxCell>
        <mxCell id="lR26Qc7CI7EQElEq0QMd-11" value="b1" style="rounded=0;whiteSpace=wrap;html=1;" parent="1" vertex="1">
          <mxGeometry x="530" y="280" width="60" height="40" as="geometry" />
        </mxCell>
        <mxCell id="lR26Qc7CI7EQElEq0QMd-47" style="edgeStyle=orthogonalEdgeStyle;rounded=0;orthogonalLoop=1;jettySize=auto;html=1;exitX=0.5;exitY=1;exitDx=0;exitDy=0;entryX=0.5;entryY=0;entryDx=0;entryDy=0;" parent="1" source="lR26Qc7CI7EQElEq0QMd-12" target="lR26Qc7CI7EQElEq0QMd-45" edge="1">
          <mxGeometry relative="1" as="geometry" />
        </mxCell>
        <mxCell id="lR26Qc7CI7EQElEq0QMd-12" value="c1" style="rounded=0;whiteSpace=wrap;html=1;" parent="1" vertex="1">
          <mxGeometry x="600" y="280" width="60" height="40" as="geometry" />
        </mxCell>
        <mxCell id="lR26Qc7CI7EQElEq0QMd-13" value="" style="endArrow=classic;html=1;rounded=0;entryX=0.5;entryY=0;entryDx=0;entryDy=0;" parent="1" target="lR26Qc7CI7EQElEq0QMd-8" edge="1">
          <mxGeometry width="50" height="50" relative="1" as="geometry">
            <mxPoint x="350" y="240" as="sourcePoint" />
            <mxPoint x="400" y="350" as="targetPoint" />
          </mxGeometry>
        </mxCell>
        <mxCell id="lR26Qc7CI7EQElEq0QMd-14" value="" style="endArrow=classic;html=1;rounded=0;entryX=0.5;entryY=0;entryDx=0;entryDy=0;" parent="1" target="lR26Qc7CI7EQElEq0QMd-9" edge="1">
          <mxGeometry width="50" height="50" relative="1" as="geometry">
            <mxPoint x="420" y="240" as="sourcePoint" />
            <mxPoint x="360" y="290" as="targetPoint" />
          </mxGeometry>
        </mxCell>
        <mxCell id="lR26Qc7CI7EQElEq0QMd-15" value="" style="endArrow=classic;html=1;rounded=0;entryX=0.5;entryY=0;entryDx=0;entryDy=0;" parent="1" edge="1">
          <mxGeometry width="50" height="50" relative="1" as="geometry">
            <mxPoint x="489.5" y="240" as="sourcePoint" />
            <mxPoint x="489.5" y="280" as="targetPoint" />
          </mxGeometry>
        </mxCell>
        <mxCell id="lR26Qc7CI7EQElEq0QMd-16" value="" style="endArrow=classic;html=1;rounded=0;entryX=0.5;entryY=0;entryDx=0;entryDy=0;" parent="1" edge="1">
          <mxGeometry width="50" height="50" relative="1" as="geometry">
            <mxPoint x="559.5" y="240" as="sourcePoint" />
            <mxPoint x="559.5" y="280" as="targetPoint" />
          </mxGeometry>
        </mxCell>
        <mxCell id="lR26Qc7CI7EQElEq0QMd-17" value="" style="endArrow=classic;html=1;rounded=0;entryX=0.5;entryY=0;entryDx=0;entryDy=0;" parent="1" edge="1">
          <mxGeometry width="50" height="50" relative="1" as="geometry">
            <mxPoint x="629.5" y="240" as="sourcePoint" />
            <mxPoint x="629.5" y="280" as="targetPoint" />
          </mxGeometry>
        </mxCell>
        <mxCell id="lR26Qc7CI7EQElEq0QMd-18" value="" style="endArrow=classic;html=1;rounded=0;entryX=0.5;entryY=0;entryDx=0;entryDy=0;" parent="1" edge="1">
          <mxGeometry width="50" height="50" relative="1" as="geometry">
            <mxPoint x="839.5" y="240" as="sourcePoint" />
            <mxPoint x="839.5" y="280" as="targetPoint" />
          </mxGeometry>
        </mxCell>
        <mxCell id="lR26Qc7CI7EQElEq0QMd-40" style="edgeStyle=orthogonalEdgeStyle;rounded=0;orthogonalLoop=1;jettySize=auto;html=1;exitX=0.5;exitY=1;exitDx=0;exitDy=0;entryX=0.5;entryY=0;entryDx=0;entryDy=0;" parent="1" source="lR26Qc7CI7EQElEq0QMd-19" target="lR26Qc7CI7EQElEq0QMd-38" edge="1">
          <mxGeometry relative="1" as="geometry" />
        </mxCell>
        <mxCell id="lR26Qc7CI7EQElEq0QMd-19" value="bi=1/(i^2+2)&amp;nbsp; для парних i&amp;nbsp;&lt;div&gt;bi=1/i&amp;nbsp; для непарних&lt;/div&gt;" style="rounded=0;whiteSpace=wrap;html=1;" parent="1" vertex="1">
          <mxGeometry x="760" y="280" width="160" height="40" as="geometry" />
        </mxCell>
        <mxCell id="lR26Qc7CI7EQElEq0QMd-65" style="edgeStyle=orthogonalEdgeStyle;rounded=0;orthogonalLoop=1;jettySize=auto;html=1;exitX=0.5;exitY=1;exitDx=0;exitDy=0;entryX=0.5;entryY=0;entryDx=0;entryDy=0;" parent="1" source="lR26Qc7CI7EQElEq0QMd-21" target="lR26Qc7CI7EQElEq0QMd-60" edge="1">
          <mxGeometry relative="1" as="geometry">
            <Array as="points">
              <mxPoint x="530" y="600" />
              <mxPoint x="420" y="600" />
            </Array>
          </mxGeometry>
        </mxCell>
        <mxCell id="lR26Qc7CI7EQElEq0QMd-21" value="y2 = A1(b1 + c1)" style="whiteSpace=wrap;html=1;rounded=0;" parent="1" vertex="1">
          <mxGeometry x="470" y="470" width="120" height="40" as="geometry" />
        </mxCell>
        <mxCell id="lR26Qc7CI7EQElEq0QMd-57" value="" style="edgeStyle=orthogonalEdgeStyle;rounded=0;orthogonalLoop=1;jettySize=auto;html=1;" parent="1" source="lR26Qc7CI7EQElEq0QMd-29" target="lR26Qc7CI7EQElEq0QMd-56" edge="1">
          <mxGeometry relative="1" as="geometry" />
        </mxCell>
        <mxCell id="WJyj7A2W-qp9mit0AP6R-10" style="edgeStyle=orthogonalEdgeStyle;rounded=0;orthogonalLoop=1;jettySize=auto;html=1;exitX=1;exitY=0.5;exitDx=0;exitDy=0;entryX=0;entryY=0.5;entryDx=0;entryDy=0;" edge="1" parent="1" source="lR26Qc7CI7EQElEq0QMd-29" target="lR26Qc7CI7EQElEq0QMd-69">
          <mxGeometry relative="1" as="geometry">
            <Array as="points">
              <mxPoint x="440" y="490" />
              <mxPoint x="440" y="560" />
              <mxPoint x="560" y="560" />
              <mxPoint x="560" y="640" />
            </Array>
          </mxGeometry>
        </mxCell>
        <mxCell id="lR26Qc7CI7EQElEq0QMd-29" value="Y3 = A2(B2 - C2)" style="whiteSpace=wrap;html=1;rounded=0;" parent="1" vertex="1">
          <mxGeometry x="290" y="470" width="120" height="40" as="geometry" />
        </mxCell>
        <mxCell id="lR26Qc7CI7EQElEq0QMd-66" style="edgeStyle=orthogonalEdgeStyle;rounded=0;orthogonalLoop=1;jettySize=auto;html=1;entryX=0.5;entryY=0;entryDx=0;entryDy=0;" parent="1" source="lR26Qc7CI7EQElEq0QMd-38" target="lR26Qc7CI7EQElEq0QMd-64" edge="1">
          <mxGeometry relative="1" as="geometry">
            <Array as="points">
              <mxPoint x="771" y="520" />
              <mxPoint x="710" y="520" />
            </Array>
          </mxGeometry>
        </mxCell>
        <mxCell id="lR26Qc7CI7EQElEq0QMd-38" value="y1 = A * b" style="whiteSpace=wrap;html=1;rounded=0;" parent="1" vertex="1">
          <mxGeometry x="714" y="390" width="113" height="40" as="geometry" />
        </mxCell>
        <mxCell id="lR26Qc7CI7EQElEq0QMd-51" style="edgeStyle=orthogonalEdgeStyle;rounded=0;orthogonalLoop=1;jettySize=auto;html=1;exitX=0.5;exitY=1;exitDx=0;exitDy=0;entryX=0.5;entryY=0;entryDx=0;entryDy=0;" parent="1" source="lR26Qc7CI7EQElEq0QMd-42" target="lR26Qc7CI7EQElEq0QMd-29" edge="1">
          <mxGeometry relative="1" as="geometry">
            <Array as="points">
              <mxPoint x="295" y="440" />
              <mxPoint x="350" y="440" />
            </Array>
          </mxGeometry>
        </mxCell>
        <mxCell id="lR26Qc7CI7EQElEq0QMd-42" value="B2 - C2" style="whiteSpace=wrap;html=1;rounded=0;" parent="1" vertex="1">
          <mxGeometry x="240" y="380" width="110" height="40" as="geometry" />
        </mxCell>
        <mxCell id="lR26Qc7CI7EQElEq0QMd-54" style="edgeStyle=orthogonalEdgeStyle;rounded=0;orthogonalLoop=1;jettySize=auto;html=1;exitX=0.5;exitY=1;exitDx=0;exitDy=0;entryX=0.5;entryY=0;entryDx=0;entryDy=0;" parent="1" source="lR26Qc7CI7EQElEq0QMd-45" target="lR26Qc7CI7EQElEq0QMd-21" edge="1">
          <mxGeometry relative="1" as="geometry" />
        </mxCell>
        <mxCell id="lR26Qc7CI7EQElEq0QMd-45" value="b1 + c1" style="whiteSpace=wrap;html=1;rounded=0;" parent="1" vertex="1">
          <mxGeometry x="540" y="390" width="110" height="40" as="geometry" />
        </mxCell>
        <mxCell id="lR26Qc7CI7EQElEq0QMd-61" value="" style="edgeStyle=orthogonalEdgeStyle;rounded=0;orthogonalLoop=1;jettySize=auto;html=1;" parent="1" source="lR26Qc7CI7EQElEq0QMd-56" target="lR26Qc7CI7EQElEq0QMd-60" edge="1">
          <mxGeometry relative="1" as="geometry">
            <Array as="points">
              <mxPoint x="350" y="600" />
              <mxPoint x="420" y="600" />
            </Array>
          </mxGeometry>
        </mxCell>
        <mxCell id="lR26Qc7CI7EQElEq0QMd-56" value="Y3&amp;nbsp; * Y3" style="whiteSpace=wrap;html=1;rounded=0;" parent="1" vertex="1">
          <mxGeometry x="305" y="545" width="90" height="40" as="geometry" />
        </mxCell>
        <mxCell id="lR26Qc7CI7EQElEq0QMd-74" value="" style="edgeStyle=orthogonalEdgeStyle;rounded=0;orthogonalLoop=1;jettySize=auto;html=1;" parent="1" source="lR26Qc7CI7EQElEq0QMd-60" target="lR26Qc7CI7EQElEq0QMd-73" edge="1">
          <mxGeometry relative="1" as="geometry">
            <Array as="points">
              <mxPoint x="420" y="700" />
              <mxPoint x="580" y="700" />
            </Array>
          </mxGeometry>
        </mxCell>
        <mxCell id="lR26Qc7CI7EQElEq0QMd-60" value="Y3 * Y3 * y2" style="whiteSpace=wrap;html=1;rounded=0;" parent="1" vertex="1">
          <mxGeometry x="375" y="620" width="90" height="40" as="geometry" />
        </mxCell>
        <mxCell id="lR26Qc7CI7EQElEq0QMd-70" value="" style="edgeStyle=orthogonalEdgeStyle;rounded=0;orthogonalLoop=1;jettySize=auto;html=1;" parent="1" source="lR26Qc7CI7EQElEq0QMd-64" target="lR26Qc7CI7EQElEq0QMd-69" edge="1">
          <mxGeometry relative="1" as="geometry" />
        </mxCell>
        <mxCell id="lR26Qc7CI7EQElEq0QMd-64" value="y1 + y2&amp;nbsp;" style="whiteSpace=wrap;html=1;rounded=0;" parent="1" vertex="1">
          <mxGeometry x="665" y="545" width="90" height="40" as="geometry" />
        </mxCell>
        <mxCell id="lR26Qc7CI7EQElEq0QMd-68" value="" style="endArrow=classic;html=1;rounded=0;exitX=0.5;exitY=1;exitDx=0;exitDy=0;entryX=0.5;entryY=0;entryDx=0;entryDy=0;" parent="1" source="lR26Qc7CI7EQElEq0QMd-21" target="lR26Qc7CI7EQElEq0QMd-64" edge="1">
          <mxGeometry width="50" height="50" relative="1" as="geometry">
            <mxPoint x="510" y="520" as="sourcePoint" />
            <mxPoint x="560" y="470" as="targetPoint" />
            <Array as="points">
              <mxPoint x="530" y="520" />
              <mxPoint x="620" y="520" />
              <mxPoint x="710" y="520" />
            </Array>
          </mxGeometry>
        </mxCell>
        <mxCell id="lR26Qc7CI7EQElEq0QMd-75" style="edgeStyle=orthogonalEdgeStyle;rounded=0;orthogonalLoop=1;jettySize=auto;html=1;exitX=0.5;exitY=1;exitDx=0;exitDy=0;" parent="1" source="lR26Qc7CI7EQElEq0QMd-69" target="lR26Qc7CI7EQElEq0QMd-73" edge="1">
          <mxGeometry relative="1" as="geometry" />
        </mxCell>
        <mxCell id="lR26Qc7CI7EQElEq0QMd-69" value="Y3(y1 + y2)" style="whiteSpace=wrap;html=1;rounded=0;" parent="1" vertex="1">
          <mxGeometry x="665" y="620" width="90" height="40" as="geometry" />
        </mxCell>
        <mxCell id="lR26Qc7CI7EQElEq0QMd-73" value="Y3*Y3*y3 + Y3(y1 + y2)" style="whiteSpace=wrap;html=1;rounded=0;" parent="1" vertex="1">
          <mxGeometry x="495" y="740" width="170" height="40" as="geometry" />
        </mxCell>
        <mxCell id="WJyj7A2W-qp9mit0AP6R-8" style="edgeStyle=orthogonalEdgeStyle;rounded=0;orthogonalLoop=1;jettySize=auto;html=1;exitX=0.5;exitY=1;exitDx=0;exitDy=0;entryX=0.5;entryY=0;entryDx=0;entryDy=0;" edge="1" parent="1" source="lR26Qc7CI7EQElEq0QMd-9" target="lR26Qc7CI7EQElEq0QMd-29">
          <mxGeometry relative="1" as="geometry">
            <mxPoint x="420" y="320" as="sourcePoint" />
            <mxPoint x="350" y="470" as="targetPoint" />
            <Array as="points">
              <mxPoint x="420" y="440" />
              <mxPoint x="350" y="440" />
            </Array>
          </mxGeometry>
        </mxCell>
      </root>
    </mxGraphModel>
  </diagram>
</mxfile>
